<?xml version="1.0" encoding="UTF-8" standalone="no"?>
<!-- Created with Inkscape (http://www.inkscape.org/) -->

<svg
   xmlns:dc="http://purl.org/dc/elements/1.1/"
   xmlns:cc="http://creativecommons.org/ns#"
   xmlns:rdf="http://www.w3.org/1999/02/22-rdf-syntax-ns#"
   xmlns:svg="http://www.w3.org/2000/svg"
   xmlns="http://www.w3.org/2000/svg"
   xmlns:sodipodi="http://sodipodi.sourceforge.net/DTD/sodipodi-0.dtd"
   xmlns:inkscape="http://www.inkscape.org/namespaces/inkscape"
   width="100"
   height="100"
   id="svg3139"
   version="1.1"
   inkscape:version="0.48.4 r9939"
   sodipodi:docname="RookB.svg">
  <defs
     id="defs3141" />
  <sodipodi:namedview
     id="base"
     pagecolor="#ffffff"
     bordercolor="#666666"
     borderopacity="1.0"
     inkscape:pageopacity="0.0"
     inkscape:pageshadow="2"
     inkscape:zoom="5.6"
     inkscape:cx="36.722738"
     inkscape:cy="35.283304"
     inkscape:document-units="px"
     inkscape:current-layer="layer1"
     showgrid="false"
     inkscape:window-width="1250"
     inkscape:window-height="1004"
     inkscape:window-x="1276"
     inkscape:window-y="-2"
     inkscape:window-maximized="1">
    <inkscape:grid
       type="xygrid"
       id="grid3165"
       empspacing="5"
       visible="true"
       enabled="true"
       snapvisiblegridlinesonly="true" />
  </sodipodi:namedview>
  <metadata
     id="metadata3144">
    <rdf:RDF>
      <cc:Work
         rdf:about="">
        <dc:format>image/svg+xml</dc:format>
        <dc:type
           rdf:resource="http://purl.org/dc/dcmitype/StillImage" />
        <dc:title></dc:title>
      </cc:Work>
    </rdf:RDF>
  </metadata>
  <g
     inkscape:label="Ebene 1"
     inkscape:groupmode="layer"
     id="layer1"
     transform="translate(0,-952.36218)">
    <path
       inkscape:connector-curvature="0"
       d="m 43.674115,1013.5938 c -4.38951,0 -6.584219,0.6886 -6.584099,2.0656 -1.2e-4,1.205 1.936389,1.9365 5.809489,2.1947 l 7.10051,0 c 8.60652,0 12.90986,-0.7316 12.90998,-2.1947 -1.2e-4,-1.377 -2.19481,-2.0656 -6.58409,-2.0656 l -12.65179,0 m 0,-8.0042 c -3.78704,0 -5.89568,0.4304 -6.3259,1.291 -0.172239,0.1722 -0.258319,0.4304 -0.258199,0.7746 -1.2e-4,0.9468 0.903589,1.5062 2.711079,1.6783 2.23765,0.2582 5.63727,0.3873 10.19892,0.3873 4.56142,0 8.00407,-0.1291 10.32797,-0.3873 1.72123,-0.1721 2.58189,-0.7315 2.58201,-1.6783 -1.2e-4,-1.377 -2.19481,-2.0656 -6.58409,-2.0656 l -12.65179,0 m 24.01257,5.5513 2.58199,9.9407 c -1e-4,3.0124 -3.05547,4.7767 -9.16609,5.2931 4.47536,1.7213 8.6496,2.582 12.52269,2.582 0.51631,0 3.05526,-0.1291 7.61689,-0.3873 3.78684,0 6.88523,1.9796 9.2952,5.9386 0.34416,0.6885 0.77451,1.4631 1.291,2.3238 l -4.64759,7.1005 c -1.37718,1.7213 -2.84031,2.8402 -4.38939,3.3566 -0.34439,-1.8074 -3.09851,-2.9263 -8.26239,-3.3566 l -3.09841,-0.2582 c -10.5863,-0.8607 -17.72984,-3.1414 -21.43057,-6.8423 -3.35671,3.5287 -8.47768,5.5513 -15.3629,6.0677 -1.5492,0.1721 -3.571759,0.4303 -6.067699,0.7746 -6.28287,0.5164 -9.9407,1.4201 -10.97348,2.7111 -0.172141,0.2582 -0.301251,0.5594 -0.387311,0.9037 -2.23771,-0.9467 -4.34636,-3.0984 -6.32589,-6.455 -0.77461,-1.3771 -1.6783,-2.7111 -2.7111,-4.0021 2.3238,-4.3033 4.81972,-6.8853 7.48778,-7.746 0.94676,-0.3443 1.979541,-0.5164 3.098411,-0.5164 0,0 2.53896,0.1291 7.616899,0.3873 3.959051,0 8.133281,-0.8607 12.52268,-2.582 -6.110719,-0.5164 -9.166079,-2.2807 -9.166079,-5.2931 0,-0.2582 0.68853,-2.4529 2.065599,-6.5841 0.430321,-1.377 0.6455,-2.3238 0.6455,-2.8402 -5.25007,-6.3689 -7.875089,-12.00626 -7.875089,-16.91201 0,-5.6804 2.797149,-10.84439 8.391479,-15.49198 4.99176,-4.21729 8.60656,-6.45501 10.84439,-6.7132 -1.89357,-2.3238 -2.8403,-4.73368 -2.8402,-7.2296 -1e-4,-4.04513 2.02247,-6.54105 6.06771,-7.4878 0.94662,-0.2581 1.93639,-0.38718 2.9693,-0.38729 4.3032,1.1e-4 7.10037,1.59224 8.39147,4.77669 l 0.6455,2.7111 0,0.3873 c -1e-4,2.40986 -0.94684,4.81972 -2.84019,7.2296 1.63516,0.43033 4.08805,1.76437 7.3587,4.0021 7.91802,5.50824 11.87709,11.57595 11.87719,18.20308 -1e-4,4.99185 -2.58212,10.45701 -7.746,16.39561 m -15.36288,-12.00626 0,-5.93854 4.51849,0 0,-4.90582 -4.51849,0 0,-5.55129 -4.64759,0 0,5.55129 -4.51851,0 0,4.90582 4.51851,0 0,5.93854 4.64759,0 m -2.32379,-36.40612 c -1.72145,0 -2.79729,0.77458 -3.22752,2.3238 l -0.12908,0.77458 c -1.1e-4,1.63527 0.86055,2.66807 2.58199,3.09841 0.25809,0.0861 0.51629,0.12909 0.77461,0.12909 2.15154,0 3.22738,-1.07582 3.22749,-3.2275 -1.1e-4,-2.0656 -1.07595,-3.09838 -3.22749,-3.09838"
       id="path1731"
       style="font-size:12px;font-style:normal;font-weight:normal;fill:#000000;fill-opacity:1;stroke:none;font-family:Bitstream Vera Sans" />
  </g>
</svg>
