<?xml version="1.0" encoding="UTF-8" standalone="no"?>
<!-- Created with Inkscape (http://www.inkscape.org/) -->

<svg
   xmlns:dc="http://purl.org/dc/elements/1.1/"
   xmlns:cc="http://creativecommons.org/ns#"
   xmlns:rdf="http://www.w3.org/1999/02/22-rdf-syntax-ns#"
   xmlns:svg="http://www.w3.org/2000/svg"
   xmlns="http://www.w3.org/2000/svg"
   xmlns:sodipodi="http://sodipodi.sourceforge.net/DTD/sodipodi-0.dtd"
   xmlns:inkscape="http://www.inkscape.org/namespaces/inkscape"
   width="100"
   height="100"
   id="svg3139"
   version="1.1"
   inkscape:version="0.48.4 r9939"
   sodipodi:docname="KnightW.svg">
  <defs
     id="defs3141" />
  <sodipodi:namedview
     id="base"
     pagecolor="#ffffff"
     bordercolor="#666666"
     borderopacity="1.0"
     inkscape:pageopacity="0.0"
     inkscape:pageshadow="2"
     inkscape:zoom="5.6"
     inkscape:cx="36.722738"
     inkscape:cy="35.283304"
     inkscape:document-units="px"
     inkscape:current-layer="layer1"
     showgrid="false"
     inkscape:window-width="1250"
     inkscape:window-height="1004"
     inkscape:window-x="1276"
     inkscape:window-y="-2"
     inkscape:window-maximized="1">
    <inkscape:grid
       type="xygrid"
       id="grid3165"
       empspacing="5"
       visible="true"
       enabled="true"
       snapvisiblegridlinesonly="true" />
  </sodipodi:namedview>
  <metadata
     id="metadata3144">
    <rdf:RDF>
      <cc:Work
         rdf:about="">
        <dc:format>image/svg+xml</dc:format>
        <dc:type
           rdf:resource="http://purl.org/dc/dcmitype/StillImage" />
        <dc:title></dc:title>
      </cc:Work>
    </rdf:RDF>
  </metadata>
  <g
     inkscape:label="Ebene 1"
     inkscape:groupmode="layer"
     id="layer1"
     transform="translate(0,-952.36218)">
    <path
       inkscape:connector-curvature="0"
       d="m 50,1009.14 c -6.02477,0 -10.71541,-0.2582 -14.0719,-0.7746 0.60235,1.2049 0.90359,2.2377 0.90369,3.0983 -10e-5,1.2911 -0.2583,2.3669 -0.77458,3.2276 2.49582,-0.7746 7.14341,-1.162 13.94279,-1.162 6.79914,0 11.44675,0.3874 13.94277,1.162 -0.5165,-0.8607 -0.77469,-1.9365 -0.77459,-3.2276 -10e-5,-1.0327 0.25809,-2.0655 0.77459,-3.0983 -4.04521,0.5164 -8.69282,0.7746 -13.94277,0.7746 m 0,-46.73423 c -1.80751,0 -3.05548,0.81761 -3.7439,2.45288 -0.17225,0.43033 -0.2583,0.86068 -0.2582,1.291 -1e-4,1.89347 0.94662,3.14144 2.84019,3.7439 0.34416,0.0861 0.73147,0.12911 1.16191,0.12911 1.9794,0 3.27043,-0.90372 3.87299,-2.7111 0.086,-0.34428 0.12898,-0.73158 0.12911,-1.16191 -1.3e-4,-1.72132 -0.86078,-2.88323 -2.58201,-3.48569 -0.5165,-0.17214 -0.98988,-0.25819 -1.42009,-0.25819 m 0,54.86743 c -3.27065,0 -7.48791,0.3013 -12.6518,0.9037 -1.46313,0.1722 -2.3238,0.9898 -2.58199,2.4529 0,1.0328 2.36671,1.6783 7.10048,1.9365 -0.43044,-0.086 -0.2583,-0.1291 0.51641,-0.1291 0.77448,0 3.31345,0 7.6169,0 10.06967,0 15.10457,-0.6024 15.10469,-1.8074 -1.2e-4,-1.9795 -2.49605,-3.0553 -7.4878,-3.2274 l -3.7439,0 c -1.11897,0 -2.0657,-0.043 -2.84021,-0.1292 l -1.03278,0 m -0.12911,-11.8771 c 9.63936,0 15.53492,-0.9038 17.6867,-2.7112 1.46301,-1.1189 2.53885,-4.08809 3.22749,-8.90787 -0.43044,-4.30333 -3.22761,-8.43453 -8.39151,-12.3936 -4.81982,-3.78691 -9.03709,-5.89555 -12.65178,-6.32589 -3.35671,0.43034 -7.44486,2.53898 -12.2645,6.32589 -5.07792,3.95907 -7.83205,8.09027 -8.26239,12.3936 0.60248,4.47548 1.54921,7.31567 2.84021,8.52057 0.34426,0.3443 0.73157,0.6455 1.16189,0.9037 2.15168,1.4632 7.70286,2.1948 16.65389,2.1948 m -2.19469,-6.32599 0,-5.68038 -4.3894,0 0,-5.0349 4.3894,0 0,-5.55129 4.6476,0 0,5.55129 4.38938,0 0,5.0349 -4.38938,0 0,5.68038 -4.6476,0 m 2.06559,26.33639 c -0.77469,0 -3.05548,1.5062 -6.84229,4.5185 -2.66817,1.8074 -6.9714,2.8833 -12.90999,3.2275 -4.30333,0 -7.746,0.2152 -10.328,0.6455 -2.75411,0.6025 -4.13119,1.7644 -4.13119,3.4857 0.2582,1.7214 1.16189,2.582 2.7111,2.582 l 6.8423,-1.0328 c 4.47544,0 9.16608,-0.6024 14.07187,-1.8074 5.59422,-1.4631 9.20902,-3.7869 10.84441,-6.9714 2.32368,4.5616 8.34834,7.3157 18.07398,8.2624 -1e-4,0 1.11875,0.1722 3.3566,0.5164 2.23763,0 3.3565,0 3.3566,0 l 6.97139,1.0328 c 1.54909,0 2.45278,-0.8606 2.71108,-2.582 -1e-4,-1.7213 -1.37717,-2.8832 -4.13118,-3.4857 l -13.81368,-1.0328 c -4.38951,-0.3442 -8.60677,-2.0656 -12.6518,-5.1639 -1.80751,-1.4632 -3.18458,-2.1948 -4.1312,-2.1948 M 50,1036.6382 c -3.3567,3.3566 -8.43464,5.4222 -15.23379,6.1968 -2.75414,0.2582 -7.57386,0.8607 -14.45921,1.8074 -1.80738,0.3443 -2.84018,1.1619 -3.09838,2.4529 -1.63526,-0.4303 -4.04514,-3.0984 -7.22959,-8.0042 -0.7746,-1.2049 -1.33403,-2.0225 -1.6783,-2.4529 2.84019,-5.4222 6.36892,-8.1333 10.58619,-8.1333 l 7.6169,0.3873 c 3.52873,0 7.65991,-0.8176 12.39357,-2.4529 -6.11071,-0.7745 -9.16608,-2.625 -9.16608,-5.5513 l 2.58199,-9.8115 c 0,-0.086 0,-0.1722 0,-0.2583 -5.16398,-5.6804 -7.74599,-11.01649 -7.74599,-16.00836 0,-5.6804 2.79716,-10.84439 8.39149,-15.49199 4.90569,-4.13121 8.52048,-6.3259 10.84439,-6.58411 -1.89356,-2.32378 -2.8403,-4.73364 -2.84019,-7.22959 -1.1e-4,-3.95907 1.97943,-6.45499 5.9386,-7.48779 0.94662,-0.25809 1.97942,-0.3872 3.0984,-0.38731 4.21715,1.1e-4 6.97127,1.59224 8.26239,4.77672 l 0.6455,2.7111 0,0.38728 c -1e-4,2.66806 -0.90382,5.07794 -2.7111,7.22959 2.32369,0.25821 5.98153,2.49594 10.9735,6.7132 5.50814,4.56152 8.26228,9.6825 8.26239,15.3629 -1.1e-4,4.81977 -2.58212,10.15586 -7.746,16.00836 -10e-5,1.205 0.43023,2.9263 1.29099,5.1641 0.86056,2.7541 1.2909,4.3894 1.291,4.9057 -1e-4,2.9263 -3.05548,4.7768 -9.16609,5.5513 4.64749,1.6353 8.77868,2.4529 12.3936,2.4529 l 7.61689,-0.3873 c 4.21716,0 7.74589,2.7111 10.5862,8.1333 l -4.3894,6.7132 c -1.46325,1.8935 -2.96941,3.1415 -4.5185,3.7439 -0.34438,-1.7213 -2.84031,-2.7971 -7.4878,-3.2275 0.60235,0 -0.68864,-0.1291 -3.87299,-0.3873 C 60.67214,1042.4477 53.52862,1040.167 50,1036.6382"
       id="path1700"
       style="font-size:12px;font-style:normal;font-weight:normal;fill:#000000;fill-opacity:1;stroke:none;font-family:Bitstream Vera Sans" />
  </g>
</svg>
