<?xml version="1.0" encoding="UTF-8" standalone="no"?>
<!-- Created with Inkscape (http://www.inkscape.org/) -->

<svg
   xmlns:dc="http://purl.org/dc/elements/1.1/"
   xmlns:cc="http://creativecommons.org/ns#"
   xmlns:rdf="http://www.w3.org/1999/02/22-rdf-syntax-ns#"
   xmlns:svg="http://www.w3.org/2000/svg"
   xmlns="http://www.w3.org/2000/svg"
   xmlns:sodipodi="http://sodipodi.sourceforge.net/DTD/sodipodi-0.dtd"
   xmlns:inkscape="http://www.inkscape.org/namespaces/inkscape"
   width="100"
   height="100"
   id="svg3139"
   version="1.1"
   inkscape:version="0.48.4 r9939"
   sodipodi:docname="QueenW.svg">
  <defs
     id="defs3141" />
  <sodipodi:namedview
     id="base"
     pagecolor="#ffffff"
     bordercolor="#666666"
     borderopacity="1.0"
     inkscape:pageopacity="0.0"
     inkscape:pageshadow="2"
     inkscape:zoom="5.6"
     inkscape:cx="36.722738"
     inkscape:cy="35.283304"
     inkscape:document-units="px"
     inkscape:current-layer="layer1"
     showgrid="false"
     inkscape:window-width="1250"
     inkscape:window-height="1004"
     inkscape:window-x="1276"
     inkscape:window-y="-2"
     inkscape:window-maximized="1">
    <inkscape:grid
       type="xygrid"
       id="grid3165"
       empspacing="5"
       visible="true"
       enabled="true"
       snapvisiblegridlinesonly="true" />
  </sodipodi:namedview>
  <metadata
     id="metadata3144">
    <rdf:RDF>
      <cc:Work
         rdf:about="">
        <dc:format>image/svg+xml</dc:format>
        <dc:type
           rdf:resource="http://purl.org/dc/dcmitype/StillImage" />
        <dc:title></dc:title>
      </cc:Work>
    </rdf:RDF>
  </metadata>
  <g
     inkscape:label="Ebene 1"
     inkscape:groupmode="layer"
     id="layer1"
     transform="translate(0,-952.36218)">
    <path
       inkscape:connector-curvature="0"
       d="m 50,1044.8361 c -17.12725,0 -25.819982,-2.8832 -26.078178,-8.6497 -0.430339,-7.9181 -1.764372,-13.8997 -4.002098,-17.9449 -0.94673,-1.6353 -2.280763,-3.6148 -4.002099,-5.9386 -2.926261,-3.873 -4.561526,-7.1435 -4.905793,-9.8116 -0.08607,-0.6885 -0.129108,-1.4201 -0.129108,-2.1947 0,-5.42221 2.280763,-9.6825 6.842288,-12.78091 1.118874,-0.68854 2.280763,-1.24797 3.485709,-1.6783 4.561524,-1.63527 9.080014,-1.37707 13.555488,0.77461 1.63526,0.77458 3.270524,1.80738 4.905788,3.09838 l 0.12911,0.12911 c 0,-1.80741 0.08605,-3.7439 0.2582,-5.80948 0,-0.60249 0.301223,-1.42011 0.903693,-2.45292 1.37707,-2.23771 3.01233,-4.0021 4.90579,-5.29309 0.34426,-0.17214 0.68853,-0.3873 1.0328,-0.6455 l 0,-3.09839 -5.29309,-3.09839 0,-4.6476 4.7767,0 1.6783,-4.90581 3.87299,0 1.6783,4.90581 4.7767,0 0,4.6476 -5.29309,3.09839 0,3.09839 c 4.47546,2.8402 6.75622,5.68039 6.84228,8.52059 0.17213,1.72133 0.2582,3.6148 0.2582,5.6804 l 0.12911,-0.12911 c 5.42219,-4.56152 11.10259,-6.02464 17.04118,-4.38937 1.54921,0.4303 3.012336,1.07581 4.389396,1.9365 4.81972,2.92625 7.27263,7.27261 7.35871,13.03909 0,3.4427 -1.72134,7.5308 -5.16401,12.2644 -2.8402,3.9591 -4.60456,6.8425 -5.293096,8.6498 -1.46311,3.873 -2.3238,8.8649 -2.58199,14.9756 -0.17212,5.7665 -8.86486,8.6497 -26.07818,8.6497 m 0,-43.5067 3.7439,-5.93861 c 0.60247,-1.29101 1.07582,-2.49594 1.42008,-3.6148 0.17215,-0.60246 0.25822,-1.85042 0.25822,-3.7439 0,-5.07791 -1.76437,-7.6169 -5.29312,-7.6169 -3.70085,0 -5.55129,2.53899 -5.55129,7.6169 0,1.89347 0.0861,3.14144 0.2582,3.7439 0.68853,2.3238 2.15167,5.07794 4.3894,8.26241 0.51641,0.6024 0.77461,1.0328 0.77461,1.291 m 34.469676,-0.2582 c 0,-3.87301 -1.29099,-6.8423 -3.87302,-8.9079 -2.151646,-1.80741 -4.690596,-2.7111 -7.616886,-2.7111 -3.70084,0 -7.70295,1.89345 -12.00628,5.68039 -5.07793,4.3894 -7.96116,10.32801 -8.6497,17.81581 0,0.6024 1.59223,1.2909 4.77669,2.0656 3.70087,0.6885 9.98373,1.0328 18.84859,1.0328 l 5.809496,-7.746 c 1.8074,-2.7541 2.71111,-5.164 2.71111,-7.2296 M 50,1018.4997 c -2.15168,0.9468 -8.69274,1.7644 -19.623193,2.4529 -1.635264,0.086 -2.969298,0.1722 -4.002099,0.2582 0.860679,3.2706 1.420106,6.8854 1.678301,10.8444 5.938593,-1.8934 13.254251,-2.8402 21.946991,-2.8402 8.86485,0 16.18052,0.9468 21.94699,2.8402 0.2582,-4.3033 0.81763,-7.9181 1.6783,-10.8444 l -19.10681,-1.5492 c -1.63526,-0.2581 -3.14142,-0.6454 -4.51848,-1.1619 m -34.469678,-17.4285 c 0,2.6681 2.108639,6.7132 6.325897,12.1353 1.032801,1.291 1.764372,2.2378 2.194691,2.8403 l 2.323798,0 c 8.86486,0 15.319862,-0.6025 19.364992,-1.8075 1.291,-0.3442 1.9365,-0.7745 1.9365,-1.2909 -0.68854,-7.4878 -3.57177,-13.42642 -8.649693,-17.81582 -4.217262,-3.78694 -8.21936,-5.68039 -12.006301,-5.68039 -1.204924,0 -2.495922,0.25819 -3.872991,0.7746 -3.442672,0.86066 -5.76647,3.14142 -6.971395,6.84229 l -0.645498,3.48572 0,0.5164 M 50,1040.1885 c 8.09025,0 13.6846,-0.5164 16.78299,-1.5492 0.7746,-0.2582 1.1619,-0.5594 1.1619,-0.9037 0,-2.2377 -5.93859,-3.3566 -17.81581,-3.3566 -4.56152,0 -8.99394,0.3013 -13.297264,0.9037 -3.184481,0.5164 -4.776708,1.3341 -4.776708,2.4529 0,1.291 5.077935,2.1087 15.233792,2.4529 1.0328,0 1.93649,0 2.7111,0"
       id="path1721"
       style="font-size:12px;font-style:normal;font-weight:normal;fill:#000000;fill-opacity:1;stroke:none;font-family:Bitstream Vera Sans" />
  </g>
</svg>
