<?xml version="1.0" encoding="UTF-8" standalone="no"?>
<!-- Created with Inkscape (http://www.inkscape.org/) -->

<svg
   xmlns:dc="http://purl.org/dc/elements/1.1/"
   xmlns:cc="http://creativecommons.org/ns#"
   xmlns:rdf="http://www.w3.org/1999/02/22-rdf-syntax-ns#"
   xmlns:svg="http://www.w3.org/2000/svg"
   xmlns="http://www.w3.org/2000/svg"
   xmlns:sodipodi="http://sodipodi.sourceforge.net/DTD/sodipodi-0.dtd"
   xmlns:inkscape="http://www.inkscape.org/namespaces/inkscape"
   width="100"
   height="100"
   id="svg3139"
   version="1.1"
   inkscape:version="0.48.4 r9939"
   sodipodi:docname="Neues Dokument 10">
  <defs
     id="defs3141" />
  <sodipodi:namedview
     id="base"
     pagecolor="#ffffff"
     bordercolor="#666666"
     borderopacity="1.0"
     inkscape:pageopacity="0.0"
     inkscape:pageshadow="2"
     inkscape:zoom="5.6"
     inkscape:cx="36.722738"
     inkscape:cy="35.283304"
     inkscape:document-units="px"
     inkscape:current-layer="layer1"
     showgrid="false"
     inkscape:window-width="1250"
     inkscape:window-height="1004"
     inkscape:window-x="1276"
     inkscape:window-y="-2"
     inkscape:window-maximized="1">
    <inkscape:grid
       type="xygrid"
       id="grid3165"
       empspacing="5"
       visible="true"
       enabled="true"
       snapvisiblegridlinesonly="true" />
  </sodipodi:namedview>
  <metadata
     id="metadata3144">
    <rdf:RDF>
      <cc:Work
         rdf:about="">
        <dc:format>image/svg+xml</dc:format>
        <dc:type
           rdf:resource="http://purl.org/dc/dcmitype/StillImage" />
        <dc:title></dc:title>
      </cc:Work>
    </rdf:RDF>
  </metadata>
  <g
     inkscape:label="Ebene 1"
     inkscape:groupmode="layer"
     id="layer1"
     transform="translate(0,-952.36218)">
    <path
       inkscape:connector-curvature="0"
       d="m 53.292042,1012.432 c 0,1.5492 -1.07583,2.3238 -3.22749,2.3238 -2.40987,0 -3.6148,-0.7746 -3.6148,-2.3238 0,-7.1435 -2.36684,-12.95307 -7.100493,-17.42857 -4.217264,-3.7869 -8.305429,-5.6804 -12.264491,-5.6804 -5.852529,0 -9.510361,2.3238 -10.973493,6.9714 l -0.516399,3.4857 0,0.25817 c 0,3.4428 2.538964,8.2195 7.616894,14.3302 1.377065,1.5492 2.538964,2.7542 3.485698,3.6148 1.377064,1.1189 3.65783,1.6783 6.842295,1.6783 3.356595,0 8.778799,-0.6455 16.266579,-1.9365 7.57387,1.291 13.0391,1.9365 16.39569,1.9365 3.27053,0 5.55129,-0.5594 6.84231,-1.6783 3.61479,-3.1844 6.62712,-7.0574 9.03697,-11.619 1.37708,-2.582 2.06561,-4.6906 2.06561,-6.326 0,-5.42217 -2.45291,-8.82177 -7.3587,-10.19877 -1.291,-0.3443 -2.66806,-0.5165 -4.13119,-0.5165 -3.95905,0 -8.00419,1.9365 -12.1354,5.8096 -4.81972,4.3033 -7.22959,10.06977 -7.22959,17.29937 m 28.01468,-12.3937 c 0,3.4428 -2.36682,7.4879 -7.1005,12.1355 l -3.35659,2.8402 -1.291,0.7746 c -1.63527,0.2582 -3.3566,0.3873 -5.16399,0.3873 -5.33613,0 -8.0042,-1.0758 -8.0042,-3.2275 0.17213,-6.6271 2.15167,-11.7911 5.9386,-15.49197 3.27052,-3.2706 6.62713,-4.9059 10.06978,-4.9059 4.3894,0 7.18658,1.5923 8.39149,4.7767 l 0.51641,2.71107 m -12.26448,32.7915 c 0,-2.2377 -6.325901,-3.3566 -18.97769,-3.3566 -3.44266,0 -6.49803,0.1291 -9.166092,0.3873 l -3.098402,0.2582 c -4.647595,0.6025 -6.971394,1.4631 -6.971394,2.582 0,1.291 1.1619,1.9365 3.485696,1.9365 l 15.621091,-1.291 15.492001,1.291 c 2.40984,0 3.61479,-0.6025 3.61479,-1.8074 m 7.22959,3.0984 c -0.17214,5.8525 -8.95093,8.7788 -26.33638,8.7788 -17.213322,0 -25.949084,-2.9263 -26.207283,-8.7788 -0.08607,-5.5083 -0.903698,-10.414 -2.452898,-14.7174 -0.946732,-2.3238 -2.75413,-5.2931 -5.422196,-8.9079 -3.356596,-4.5615 -5.034896,-8.6066 -5.034896,-12.1355 0,-5.50817 2.366833,-9.76847 7.100495,-12.78086 2.668064,-1.72133 5.637361,-2.58199 8.907893,-2.58199 4.475462,0 8.735761,1.63527 12.780892,4.90578 0,-3.95905 0.387301,-6.67015 1.161901,-8.13327 0.602463,-1.63528 2.581992,-3.61482 5.938592,-5.93861 l 0,-2.9693 -5.293092,-3.2275 0,-4.6476 4.776692,0 1.5492,-4.77668 4.389389,0 1.6783,4.77668 4.647591,0 0,4.6476 -5.16399,3.2275 0,2.9693 c 3.27053,2.40986 5.29309,4.47546 6.06769,6.1968 l 0.9037,3.74388 c 0.0861,1.0328 0.17214,2.40986 0.2582,4.1312 4.045129,-3.2705 8.21937,-4.90578 12.52271,-4.90578 5.76645,0 10.24192,2.19469 13.426379,6.58408 1.80741,2.582 2.7111,5.5083 2.7111,8.77877 0,3.5289 -1.678299,7.617 -5.034899,12.2646 l -2.969301,4.1312 c -3.184449,4.8198 -4.81971,11.2748 -4.905789,19.365 m -57.707659,-35.8899 c 0,-3.61467 1.807399,-5.93847 5.422195,-6.97127 1.0328,-0.3443 2.108634,-0.5165 3.227499,-0.5165 3.614797,0 7.057461,1.6353 10.327991,4.9059 3.700865,3.78697 5.637364,8.95097 5.809494,15.49197 0.0861,1.8935 -1.893465,2.9693 -5.938594,3.2275 -0.602463,0 -1.247964,0 -1.936499,0 -1.721331,0 -3.485695,-0.1291 -5.293095,-0.3873 -2.840197,-1.377 -5.680395,-4.0881 -8.520592,-8.1333 -2.0656,-3.0123 -3.098399,-5.5513 -3.098399,-7.617"
       id="text1061"
       style="font-size:12px;font-style:normal;font-weight:normal;fill:#000000;fill-opacity:1;stroke:none;font-family:Bitstream Vera Sans" />
  </g>
</svg>
