<?xml version="1.0" encoding="UTF-8" standalone="no"?>
<!-- Created with Inkscape (http://www.inkscape.org/) -->

<svg
   xmlns:dc="http://purl.org/dc/elements/1.1/"
   xmlns:cc="http://creativecommons.org/ns#"
   xmlns:rdf="http://www.w3.org/1999/02/22-rdf-syntax-ns#"
   xmlns:svg="http://www.w3.org/2000/svg"
   xmlns="http://www.w3.org/2000/svg"
   xmlns:sodipodi="http://sodipodi.sourceforge.net/DTD/sodipodi-0.dtd"
   xmlns:inkscape="http://www.inkscape.org/namespaces/inkscape"
   width="100"
   height="100"
   id="svg3139"
   version="1.1"
   inkscape:version="0.48.4 r9939"
   sodipodi:docname="PawnW.svg">
  <defs
     id="defs3141" />
  <sodipodi:namedview
     id="base"
     pagecolor="#ffffff"
     bordercolor="#666666"
     borderopacity="1.0"
     inkscape:pageopacity="0.0"
     inkscape:pageshadow="2"
     inkscape:zoom="5.6"
     inkscape:cx="36.722738"
     inkscape:cy="35.283304"
     inkscape:document-units="px"
     inkscape:current-layer="layer1"
     showgrid="false"
     inkscape:window-width="1250"
     inkscape:window-height="1004"
     inkscape:window-x="1276"
     inkscape:window-y="-2"
     inkscape:window-maximized="1">
    <inkscape:grid
       type="xygrid"
       id="grid3165"
       empspacing="5"
       visible="true"
       enabled="true"
       snapvisiblegridlinesonly="true" />
  </sodipodi:namedview>
  <metadata
     id="metadata3144">
    <rdf:RDF>
      <cc:Work
         rdf:about="">
        <dc:format>image/svg+xml</dc:format>
        <dc:type
           rdf:resource="http://purl.org/dc/dcmitype/StillImage" />
        <dc:title></dc:title>
      </cc:Work>
    </rdf:RDF>
  </metadata>
  <g
     inkscape:label="Ebene 1"
     inkscape:groupmode="layer"
     id="layer1"
     transform="translate(0,-952.36218)">
    <path
       inkscape:connector-curvature="0"
       d="m 20.758875,1010.0437 c 1.20493,0 1.8074,0.8176 1.8074,2.4528 0,2.1517 -1.07583,3.2276 -3.22751,3.2276 -0.86065,0 -1.29099,-0.6886 -1.29099,-2.0657 0,-2.4098 0.90369,-3.6147 2.7111,-3.6147 m 9.2952,-15.75025 c -1.20493,0 -1.80741,-0.73155 -1.80741,-2.19469 0,-2.3238 1.37707,-4.21725 4.13121,-5.6804 1.20492,-0.60246 2.32379,-0.90369 3.35659,-0.90369 1.80739,0 2.79715,0.60246 2.9693,1.80741 0,1.97953 -1.54921,3.87299 -4.6476,5.68037 -1.54921,0.86069 -2.88322,1.291 -4.00209,1.291 m 1.0328,-24.27077 c 0.34426,1.20493 0.51639,2.02258 0.51639,2.45289 0,0.25821 -0.12909,0.94673 -0.3873,2.0656 1.37706,0 3.27055,-0.68853 5.68039,-2.0656 -2.32379,-1.20492 -4.26029,-2.02257 -5.80948,-2.45289 m -15.3629,44.41042 c 0.51641,2.0655 1.89346,3.5717 4.1312,4.5184 0.86067,0.3443 1.6783,0.5164 2.45289,0.5164 l 0.25821,0 c 0.17213,0 1.11886,-0.5164 2.8402,-1.5492 0.51639,-0.3442 0.94673,-0.5163 1.291,-0.5163 l 0.51639,0 c 0.43033,0 0.64552,0.2581 0.64552,0.7745 l -0.77461,2.4529 c 0,0.7746 0.60246,1.1619 1.80739,1.1619 0.17214,0 1.24798,-1.5061 3.22751,-4.5185 3.78692,-5.8525 9.16608,-10.2849 16.13749,-13.2972 0.68852,-4.64762 2.40986,-8.7358 5.16398,-12.26454 0.68854,-0.94674 1.37707,-1.42009 2.0656,-1.42009 0.77461,0 1.16191,0.55943 1.16191,1.67828 0,0.25822 -0.7746,2.7111 -2.3238,7.35873 -0.60247,1.97952 -0.90371,3.44262 -0.90371,4.38942 0,0.2582 0.0861,0.8176 0.25822,1.6783 0,6.1107 -2.58202,12.5226 -7.746,19.2358 -3.44268,4.6476 -5.33613,8.3485 -5.68041,11.1026 l 42.60296,0 c 0.34428,-3.959 0.51641,-6.8853 0.51641,-8.7788 0,-17.7297 -5.55128,-31.88765 -16.65389,-42.47383 -3.3566,-3.09841 -6.0677,-4.6476 -8.13328,-4.6476 l -7.746,0 c -0.68854,-0.34427 -1.37708,-2.06561 -2.0656,-5.16399 -0.51639,-2.49594 -1.16189,-4.04514 -1.9365,-4.6476 -1.03281,3.09839 -4.21726,5.50826 -9.55339,7.22959 -2.84019,0.86066 -4.81973,1.72134 -5.9386,2.582 -0.94673,3.01233 -3.7439,9.12307 -8.3915,18.33219 -4.56152,9.12304 -6.9714,14.54524 -7.22959,16.26664 m 72.29595,26.0781 -54.09286,0 c 0.34426,-5.9386 2.58199,-11.619 6.71319,-17.0412 3.18447,-4.3033 5.07794,-6.9283 5.68041,-7.8751 1.20492,-1.8934 1.9365,-4.1742 2.19469,-6.8422 -5.59433,2.4098 -9.9407,5.8525 -13.03908,10.328 l -1.80741,2.9693 c -1.29099,2.0655 -2.10864,3.2274 -2.4529,3.4856 -0.51639,0.4304 -1.07582,0.6455 -1.6783,0.6455 -2.66805,0 -4.47546,-0.9037 -5.42218,-2.7111 -0.17215,-0.2582 -0.25821,-0.5594 -0.25821,-0.9037 -0.86067,0.4304 -1.72133,0.6455 -2.58201,0.6455 -4.13119,0 -7.40172,-2.582 -9.81158,-7.746 0.68853,-3.7869 4.30333,-12.5226 10.84438,-26.20723 0.68854,-1.291 1.20495,-2.3238 1.54921,-3.0984 2.582,-5.76648 3.873,-10.11282 3.873,-13.0391 0,-0.43032 -0.25819,-2.84019 -0.77461,-7.22959 l 1.03281,0 c 4.64759,0 9.08003,1.46314 13.29728,4.3894 2.3238,-4.04514 4.26029,-6.0677 5.8095,-6.0677 2.75413,1.46314 4.64759,3.52874 5.68039,6.19681 l 1.42011,4.26029 c 0.86065,-0.17214 1.59223,-0.2582 2.19469,-0.2582 6.88534,0 13.6846,4.38939 20.39779,13.16819 7.83206,10.24192 11.74808,24.27073 11.74808,42.08653 0,4.0452 -0.17212,7.66 -0.51639,10.8444"
       id="path1693"
       style="font-size:12px;font-style:normal;font-weight:normal;fill:#000000;fill-opacity:1;stroke:none;font-family:Bitstream Vera Sans" />
  </g>
</svg>
