<?xml version="1.0" encoding="UTF-8" standalone="no"?>
<!-- Created with Inkscape (http://www.inkscape.org/) -->

<svg
   xmlns:dc="http://purl.org/dc/elements/1.1/"
   xmlns:cc="http://creativecommons.org/ns#"
   xmlns:rdf="http://www.w3.org/1999/02/22-rdf-syntax-ns#"
   xmlns:svg="http://www.w3.org/2000/svg"
   xmlns="http://www.w3.org/2000/svg"
   xmlns:sodipodi="http://sodipodi.sourceforge.net/DTD/sodipodi-0.dtd"
   xmlns:inkscape="http://www.inkscape.org/namespaces/inkscape"
   width="100"
   height="100"
   id="svg3139"
   version="1.1"
   inkscape:version="0.48.4 r9939"
   sodipodi:docname="PawnB.svg">
  <defs
     id="defs3141" />
  <sodipodi:namedview
     id="base"
     pagecolor="#ffffff"
     bordercolor="#666666"
     borderopacity="1.0"
     inkscape:pageopacity="0.0"
     inkscape:pageshadow="2"
     inkscape:zoom="5.6"
     inkscape:cx="36.722738"
     inkscape:cy="35.283304"
     inkscape:document-units="px"
     inkscape:current-layer="layer1"
     showgrid="false"
     inkscape:window-width="1250"
     inkscape:window-height="1004"
     inkscape:window-x="1276"
     inkscape:window-y="-2"
     inkscape:window-maximized="1">
    <inkscape:grid
       type="xygrid"
       id="grid3165"
       empspacing="5"
       visible="true"
       enabled="true"
       snapvisiblegridlinesonly="true" />
  </sodipodi:namedview>
  <metadata
     id="metadata3144">
    <rdf:RDF>
      <cc:Work
         rdf:about="">
        <dc:format>image/svg+xml</dc:format>
        <dc:type
           rdf:resource="http://purl.org/dc/dcmitype/StillImage" />
        <dc:title></dc:title>
      </cc:Work>
    </rdf:RDF>
  </metadata>
  <g
     inkscape:label="Ebene 1"
     inkscape:groupmode="layer"
     id="layer1"
     transform="translate(0,-952.36218)">
    <path
       inkscape:connector-curvature="0"
       d="m 73.044335,1035.1536 c -1e-4,-9.037 -2.453,-15.7932 -7.3587,-20.2686 -1.63536,-1.5493 -3.65793,-3.0124 -6.06768,-4.3895 -3.3567,-1.9795 -5.035,-3.7869 -5.0349,-5.4222 -1e-4,-0.8607 0.86055,-1.8074 2.58199,-2.8402 2.66796,-1.4631 4.26019,-3.18454 4.77671,-5.16404 0.17202,-0.7746 0.25809,-1.7213 0.25819,-2.8402 -10e-5,-3.959 -2.02266,-7.05743 -6.0677,-9.29516 l -2.32379,-1.6783 c -0.43045,-0.43032 -0.64561,-0.9037 -0.6455,-1.42011 -1.1e-4,-1.46312 0.51628,-2.92626 1.54919,-4.38939 0.68843,-0.94672 1.0327,-2.0656 1.0328,-3.3566 -1e-4,-2.23771 -1.20503,-3.87298 -3.61479,-4.90579 -0.77471,-0.25821 -1.5493,-0.3873 -2.3238,-0.3873 -2.40998,0 -4.1313,1.07584 -5.164,3.22749 -0.34436,0.68854 -0.51651,1.37708 -0.51641,2.0656 -1e-4,0.77461 0.55935,2.23773 1.67831,4.38941 0.68843,1.20492 0.98966,2.3238 0.90372,3.35658 -1.4e-4,1.0328 -0.9899,2.0656 -2.96931,3.09841 -3.95918,2.32379 -5.93872,5.42216 -5.93859,9.29516 -1.3e-4,3.3566 1.67817,6.02474 5.03488,8.00424 1.63516,1.1189 2.4528,2.0656 2.45291,2.8402 -1.1e-4,1.6353 -1.67841,3.4427 -5.03491,5.4222 -6.19678,3.787 -10.15585,8.3916 -11.87718,13.8137 -0.94673,3.0124 -1.4201,6.6272 -1.4201,10.8444 l 46.08866,0 m -50.60716,5.164 c -0.0861,-1.0328 -0.12911,-3.0123 -0.12911,-5.9386 0,-10.5861 3.09841,-18.5043 9.2952,-23.7544 2.0656,-1.7213 4.69053,-3.3996 7.87509,-5.0349 -3.27053,-1.0328 -5.46522,-3.5287 -6.58409,-7.48784 -0.43032,-1.291 -0.6455,-2.625 -0.6455,-4.0021 0,-5.7664 2.92626,-9.89764 8.7788,-12.39355 -1.37717,-2.49595 -2.06571,-4.94883 -2.0656,-7.35871 -1.1e-4,-3.95906 1.93639,-6.88532 5.80948,-8.77878 1.63517,-0.77461 3.39954,-1.16191 5.2931,-1.16191 4.3893,0 7.61679,1.6783 9.6825,5.0349 0.94663,1.46314 1.42,3.0984 1.4201,4.90579 -10e-5,2.3238 -0.77471,4.77671 -2.3238,7.35871 5.93849,2.40986 8.90779,6.54105 8.9079,12.39355 -1.1e-4,4.5616 -1.67841,8.00424 -5.03491,10.32804 -0.68863,0.5164 -1.46324,0.9037 -2.3238,1.1619 7.7459,3.9591 12.78079,8.994 15.10471,15.1047 1.46302,3.787 2.19459,8.3485 2.19469,13.6846 -1e-4,2.8402 -0.0431,4.8198 -0.12911,5.9386 l -55.12565,0"
       id="path1688"
       style="font-size:12px;font-style:normal;font-weight:normal;fill:#000000;fill-opacity:1;stroke:none;font-family:Bitstream Vera Sans" />
  </g>
</svg>
