<?xml version="1.0" encoding="UTF-8" standalone="no"?>
<!-- Created with Inkscape (http://www.inkscape.org/) -->

<svg
   xmlns:dc="http://purl.org/dc/elements/1.1/"
   xmlns:cc="http://creativecommons.org/ns#"
   xmlns:rdf="http://www.w3.org/1999/02/22-rdf-syntax-ns#"
   xmlns:svg="http://www.w3.org/2000/svg"
   xmlns="http://www.w3.org/2000/svg"
   xmlns:sodipodi="http://sodipodi.sourceforge.net/DTD/sodipodi-0.dtd"
   xmlns:inkscape="http://www.inkscape.org/namespaces/inkscape"
   width="100"
   height="100"
   id="svg3139"
   version="1.1"
   inkscape:version="0.48.4 r9939"
   sodipodi:docname="RookW.svg">
  <defs
     id="defs3141" />
  <sodipodi:namedview
     id="base"
     pagecolor="#ffffff"
     bordercolor="#666666"
     borderopacity="1.0"
     inkscape:pageopacity="0.0"
     inkscape:pageshadow="2"
     inkscape:zoom="5.6"
     inkscape:cx="36.722738"
     inkscape:cy="35.283304"
     inkscape:document-units="px"
     inkscape:current-layer="layer1"
     showgrid="false"
     inkscape:window-width="1250"
     inkscape:window-height="1004"
     inkscape:window-x="1276"
     inkscape:window-y="-2"
     inkscape:window-maximized="1">
    <inkscape:grid
       type="xygrid"
       id="grid3165"
       empspacing="5"
       visible="true"
       enabled="true"
       snapvisiblegridlinesonly="true" />
  </sodipodi:namedview>
  <metadata
     id="metadata3144">
    <rdf:RDF>
      <cc:Work
         rdf:about="">
        <dc:format>image/svg+xml</dc:format>
        <dc:type
           rdf:resource="http://purl.org/dc/dcmitype/StillImage" />
        <dc:title></dc:title>
      </cc:Work>
    </rdf:RDF>
  </metadata>
  <g
     inkscape:label="Ebene 1"
     inkscape:groupmode="layer"
     id="layer1"
     transform="translate(0,-952.36218)">
    <path
       inkscape:connector-curvature="0"
       d="m 47.095255,1015.0139 5.6804,0 c 1.29089,0 2.84008,0.043 4.64759,0.1291 l 12.78089,0.7746 0.12911,0 c 1.54909,0 2.32367,-0.2151 2.32379,-0.6455 l 0,-0.5164 c -1.2e-4,-2.582 -5.72353,-4.2603 -17.1703,-5.0349 -2.06571,-0.1721 -3.87309,-0.2582 -5.42218,-0.2582 -8.43464,0 -14.93256,0.8607 -19.49409,2.582 -2.0656,0.7746 -3.0984,1.6783 -3.0984,2.7111 l 0,0.5164 c 0,0.4304 0.77461,0.6455 2.3238,0.6455 l 17.29939,-0.9037 m 23.88348,5.8095 c -6.79937,-0.8606 -13.77077,-1.291 -20.91418,-1.291 -7.48791,0 -14.45921,0.4304 -20.91419,1.291 1.0328,0.8607 1.54919,2.539 1.54919,5.035 0,1.6352 -0.25819,2.625 -0.77458,2.9693 5.16398,-0.9467 11.87709,-1.4201 20.13958,-1.4201 8.26228,0 14.97547,0.4733 20.13958,1.4201 -0.51651,-0.3442 -0.77471,-1.3341 -0.77461,-2.9693 -1e-4,-2.496 0.51631,-4.1743 1.54921,-5.035 m -20.91418,11.1027 c -4.38951,0 -9.29531,0.2152 -14.7174,0.6455 -4.21726,0.3443 -6.3259,1.3341 -6.3259,2.9693 0,2.1517 7.01443,3.2275 21.0433,3.2275 14.02874,0 21.04317,-1.0758 21.04327,-3.2275 -1e-4,-0.6885 -0.55953,-1.334 -1.6783,-1.9365 -3.27063,-1.1188 -9.72563,-1.6783 -19.36497,-1.6783 m 0,-67.51931 c -2.15179,0 -3.22762,1.0328 -3.22749,3.0984 -1.3e-4,2.23773 1.0757,3.3566 3.22749,3.3566 2.06548,0 3.09828,-1.11887 3.09838,-3.3566 -10e-5,-2.0656 -1.0329,-3.0984 -3.09838,-3.0984 m 0,-3.74388 c 3.09828,0 5.24995,1.42008 6.45498,4.26029 l 0.6455,2.58199 0,0.38731 c -1.1e-4,0.51639 -0.34437,1.59223 -1.0328,3.22749 -1.20503,3.52874 -1.80749,6.58409 -1.80739,9.16608 -1e-4,4.21728 0.94663,10.45711 2.84019,18.7195 4.64749,-9.81158 6.9713,-17.21332 6.9714,-22.20519 l -0.77459,-5.55129 c -1.3e-4,-3.01233 1.33391,-5.164 4.0021,-6.455 0.9466,-0.51639 1.9794,-0.77458 3.09838,-0.77458 3.0983,0 5.29299,1.37704 6.58409,4.13118 0.51631,1.0328 0.77451,2.0656 0.77461,3.0984 -1e-4,2.23773 -0.77471,4.0021 -2.3238,5.2931 -2.3239,2.3238 -3.52885,6.11072 -3.61479,11.36078 -1e-4,2.23775 0.21505,5.85254 0.6455,10.8444 5.59422,-5.76646 8.39137,-10.4571 8.39149,-14.07189 l -0.64549,-5.03491 c -1.3e-4,-2.84019 1.29087,-4.94882 3.87299,-6.32587 1.03269,-0.60248 2.10851,-0.90372 3.2275,-0.90372 2.92615,0 5.12084,1.33404 6.58408,4.0021 l 0.77461,2.45291 0,0.77458 c -1e-4,3.52875 -1.97964,6.19682 -5.93859,8.0042 -0.17225,3.70087 -1.59235,10.97349 -4.26029,21.81783 -0.17225,0.5164 -0.30136,0.9898 -0.38731,1.4201 -1.1e-4,1.205 -1.37717,3.2706 -4.13121,6.1968 -3.70097,3.7009 -5.55139,6.5841 -5.55129,8.6497 -1e-4,0.9467 1.0327,3.4857 3.0984,7.6169 0.34418,0.7746 0.51629,1.9365 0.51639,3.4857 l 0,0.9037 c -0.0862,0.2582 -0.12921,0.5595 -0.12908,0.9038 l 0,0.1291 0.12908,0.1291 c -1e-4,3.0984 -8.30553,4.8197 -24.91628,5.164 -1.11895,0 -2.19479,0 -3.22749,0 l -5.42218,-0.1291 -0.12911,0 c -8.09037,-0.2582 -14.24403,-0.9467 -18.46128,-2.0656 -2.66807,-0.7746 -4.0021,-1.7643 -4.0021,-2.9693 0.0861,-0.086 0.0861,-0.6025 0,-1.5492 -0.0861,-0.1721 -0.0861,-0.3443 0,-0.5164 0,-1.9795 0.6455,-4.2603 1.9365,-6.8423 1.0328,-2.0656 1.54919,-3.4857 1.54919,-4.2603 0,-1.3771 -0.73156,-3.0123 -2.19469,-4.9058 l -6.32591,-7.2296 c -0.68852,-0.9467 -1.0328,-1.8504 -1.0328,-2.7111 -2.66806,-10.9305 -4.17421,-18.03098 -4.51849,-21.30153 -0.0861,-0.68854 -0.1291,-1.33404 -0.1291,-1.9365 -3.9590598,-1.80738 -5.9385898,-4.47545 -5.9385898,-8.0042 0,-2.84019 1.29099,-4.94882 3.87298,-6.32587 1.1188698,-0.60248 2.2377498,-0.90372 3.3565998,-0.90372 3.01234,0 5.16401,1.37707 6.45502,4.13121 0.51639,0.94673 0.77458,1.97953 0.77458,3.09838 l -0.6455,5.03491 c 0,3.78693 2.75413,8.47756 8.26239,14.07189 0.43034,-3.78694 0.6455,-7.40173 0.6455,-10.8444 0,-4.73365 -0.55943,-7.8751 -1.67828,-9.42429 -0.43034,-0.60246 -1.07584,-1.29099 -1.93651,-2.0656 -1.5492,-1.0328 -2.3238,-2.75412 -2.3238,-5.16399 0,-3.01233 1.4201,-5.20702 4.26031,-6.58408 0.94673,-0.43035 1.97954,-0.6455 3.09838,-0.6455 3.01234,0 5.16401,1.37704 6.45501,4.13118 0.51628,0.94673 0.77448,1.97954 0.77458,3.0984 l -0.77458,5.42219 0,0.1291 c 0,4.90579 2.32367,12.30754 6.9714,22.20519 1.80728,-7.83205 2.71098,-14.0719 2.71108,-18.7195 -10e-5,-3.44265 -0.6456,-6.71318 -1.9365,-9.81158 -0.51649,-1.20493 -0.7747,-2.0656 -0.77458,-2.58199 -1.2e-4,-3.01234 1.37694,-5.16399 4.13118,-6.45501 0.94662,-0.51639 1.97942,-0.77458 3.09841,-0.77458 m 37.30987,15.87928 c -1.37718,0 -2.36694,0.68854 -2.9693,2.0656 -0.0862,0.34427 -0.12922,0.68852 -0.12911,1.03278 -1.1e-4,1.72134 0.77449,2.79718 2.3238,3.22752 0.25809,0.0861 0.51631,0.12909 0.77461,0.12909 2.15154,0 3.22738,-1.11886 3.22749,-3.35661 -1.1e-4,-2.06558 -1.07595,-3.09838 -3.22749,-3.09838 m -16.9121,-8.26239 c -1.46324,0 -2.453,0.73157 -2.96929,2.19469 l -0.12909,1.0328 c -1.2e-4,1.54919 0.73144,2.58199 2.19469,3.0984 0.25809,0.0861 0.55932,0.12909 0.90369,0.12909 2.23763,0 3.3565,-1.07582 3.3566,-3.22749 -10e-5,-2.15165 -1.11897,-3.22749 -3.3566,-3.22749 m -41.05377,0 c -2.15165,0 -3.22749,1.07584 -3.22749,3.22749 0,2.15167 1.07584,3.22749 3.22749,3.22749 2.06561,0 3.09841,-1.07582 3.09841,-3.22749 0,-2.15165 -1.0328,-3.22749 -3.09841,-3.22749 m -16.91209,8.26239 c -2.15165,0 -3.2274898,1.0328 -3.2274898,3.09838 0,2.23775 1.0758398,3.35661 3.2274898,3.35661 2.06561,0 3.09841,-1.11886 3.09841,-3.35661 0,-1.46311 -0.73157,-2.45288 -2.19469,-2.96929 -0.25822,-0.0861 -0.55944,-0.12909 -0.90372,-0.12909 m 37.56809,8.2624 c -1.20505,7.57385 -2.75425,13.03907 -4.6476,16.39571 l -1.93649,3.0984 0,0.1291 c -0.25832,-0.2582 -1.37718,-1.5492 -3.3566,-3.873 -2.49605,-2.9263 -5.12098,-8.47759 -7.8751,-16.65391 0.17213,1.20492 0.2582,2.45289 0.2582,3.74388 0,4.04514 -0.73157,10.28497 -2.19471,18.71943 -4.64758,-2.7541 -9.16608,-7.14347 -13.55549,-13.16814 1.46314,7.40174 2.58202,12.26444 3.3566,14.58834 0.51641,1.7214 1.16191,2.711 1.9365,2.9692 7.05746,-4.0451 16.39559,-6.0676 28.01469,-6.0676 11.70494,0 21.04317,2.0226 28.01466,6.0676 1.54909,-0.5163 3.27043,-6.3689 5.16401,-17.55754 -4.47557,6.19681 -8.95105,10.58624 -13.42639,13.16814 -1.46325,-7.48774 -2.1948,-13.38329 -2.19469,-17.68662 -1.1e-4,-1.11886 0.0859,-2.7111 0.25819,-4.77669 -1.72144,5.16399 -3.70097,9.76854 -5.93859,13.81368 -1.20505,1.80739 -2.53909,3.52873 -4.00211,5.16403 -0.68863,0.6885 -1.11897,1.2049 -1.29099,1.5492 l -2.84021,-5.03493 c -0.0862,-0.34426 -0.21526,-0.68853 -0.38728,-1.0328 -0.68864,-1.89346 -1.80751,-6.41196 -3.3566,-13.55548"
       id="path1715"
       style="font-size:12px;font-style:normal;font-weight:normal;fill:#000000;fill-opacity:1;stroke:none;font-family:Bitstream Vera Sans" />
  </g>
</svg>
