<?xml version="1.0" encoding="UTF-8" standalone="no"?>
<!-- Created with Inkscape (http://www.inkscape.org/) -->

<svg
   xmlns:dc="http://purl.org/dc/elements/1.1/"
   xmlns:cc="http://creativecommons.org/ns#"
   xmlns:rdf="http://www.w3.org/1999/02/22-rdf-syntax-ns#"
   xmlns:svg="http://www.w3.org/2000/svg"
   xmlns="http://www.w3.org/2000/svg"
   xmlns:sodipodi="http://sodipodi.sourceforge.net/DTD/sodipodi-0.dtd"
   xmlns:inkscape="http://www.inkscape.org/namespaces/inkscape"
   width="100"
   height="100"
   id="svg3139"
   version="1.1"
   inkscape:version="0.48.4 r9939"
   sodipodi:docname="BishopW.svg">
  <defs
     id="defs3141" />
  <sodipodi:namedview
     id="base"
     pagecolor="#ffffff"
     bordercolor="#666666"
     borderopacity="1.0"
     inkscape:pageopacity="0.0"
     inkscape:pageshadow="2"
     inkscape:zoom="5.6"
     inkscape:cx="36.722738"
     inkscape:cy="35.283304"
     inkscape:document-units="px"
     inkscape:current-layer="layer1"
     showgrid="false"
     inkscape:window-width="1250"
     inkscape:window-height="1004"
     inkscape:window-x="1276"
     inkscape:window-y="-2"
     inkscape:window-maximized="1">
    <inkscape:grid
       type="xygrid"
       id="grid3165"
       empspacing="5"
       visible="true"
       enabled="true"
       snapvisiblegridlinesonly="true" />
  </sodipodi:namedview>
  <metadata
     id="metadata3144">
    <rdf:RDF>
      <cc:Work
         rdf:about="">
        <dc:format>image/svg+xml</dc:format>
        <dc:type
           rdf:resource="http://purl.org/dc/dcmitype/StillImage" />
        <dc:title></dc:title>
      </cc:Work>
    </rdf:RDF>
  </metadata>
  <g
     inkscape:label="Ebene 1"
     inkscape:groupmode="layer"
     id="layer1"
     transform="translate(0,-952.36218)">
    <path
       inkscape:connector-curvature="0"
       d="m 35.2826,990.16224 0,22.85066 29.43479,0 0,-22.85066 -29.43479,0 m -15.23379,50.09076 -2.45288,-2.4529 0,-8.9079 13.16819,-13.2973 0,-25.81996 -11.3608,-9.94069 0,-11.74809 3.74391,-3.61479 11.61898,0 2.19469,2.19469 0,3.3566 3.74391,0 0,-3.3566 2.1947,-2.19469 14.20098,0 2.19471,2.19469 0,3.3566 3.61479,0 0,-3.3566 2.32381,-2.19469 11.61899,0 3.74388,3.61479 0,11.74809 -11.36078,9.94069 0,25.81996 13.16818,13.2973 0,8.9079 -2.4529,2.4529 -59.90236,0 m 2.06562,-10.1989 0,5.0349 55.77114,0 0,-5.0349 -55.77114,0 m 12.65178,-12.7809 -8.5206,8.2624 47.50877,0 -8.52058,-8.2624 -30.46759,0 m 10.32801,-47.37965 0,3.35659 -1.93652,1.80741 -8.39149,0 -1.93649,-1.80741 0,-3.61479 -7.22961,0 -1.6783,1.80741 0,7.2296 8.7788,7.10047 34.59877,0 8.7788,-7.10047 0,-7.2296 -1.6783,-1.80741 -7.22959,0 0,3.61479 -1.93649,1.80741 -8.39151,0 -1.93649,-1.80741 0,-3.35659 -9.81158,0"
       id="path1705"
       style="font-size:12px;font-style:normal;font-weight:normal;fill:#000000;fill-opacity:1;stroke:none;font-family:Bitstream Vera Sans" />
  </g>
</svg>
